<svg xmlns="http://www.w3.org/2000/svg" width="143" height="40" viewBox="0 0 143 40" fill="none"><path d="M49.4 24.832V32H45.816V10.24H49.4V19.84L59.096 9.76L61.688 11.84L54.104 19.872L63.192 32H58.776L51.64 22.432L49.4 24.832ZM70.276 19.328C68.868 19.328 67.3747 19.68 65.796 20.384L64.804 17.44C65.3587 17.0773 66.212 16.7573 67.364 16.48C68.5373 16.2027 69.4867 16.064 70.212 16.064C71.4067 16.064 72.4947 16.3093 73.476 16.8C74.4787 17.2907 75.268 17.9627 75.844 18.816C76.42 19.648 76.708 20.5867 76.708 21.632V32H74.308L73.764 30.432C73.1667 31.008 72.484 31.4773 71.716 31.84C70.948 32.2027 70.18 32.384 69.412 32.384C67.62 32.384 66.2547 31.936 65.316 31.04C64.3987 30.144 63.94 28.9493 63.94 27.456C63.94 25.8987 64.4627 24.6933 65.508 23.84C66.5747 22.9867 67.972 22.56 69.7 22.56H73.092C73.0493 20.4053 72.1107 19.328 70.276 19.328ZM69.636 24.96C68.8467 24.96 68.2173 25.2053 67.748 25.696C67.3 26.1653 67.076 26.752 67.076 27.456C67.076 28.0107 67.2787 28.5013 67.684 28.928C68.0893 29.3333 68.644 29.536 69.348 29.536C70.0093 29.536 70.6707 29.376 71.332 29.056C71.9933 28.736 72.5907 28.2987 73.124 27.744V24.96H69.636ZM80.2535 19.36H77.8855V16.608H80.2535V14.976C80.2535 13.2907 80.7335 11.968 81.6935 11.008C82.6748 10.0267 84.0188 9.536 85.7255 9.536C86.1948 9.536 86.7068 9.62133 87.2615 9.792C87.8375 9.94133 88.2748 10.1333 88.5735 10.368L87.5815 13.056C86.8988 12.8 86.3655 12.672 85.9815 12.672C85.2562 12.672 84.7228 12.9173 84.3815 13.408C84.0402 13.8987 83.8695 14.5707 83.8695 15.424V16.608H86.7495L87.9015 19.36H83.8695V39.36H80.2535V19.36ZM96.0425 16.064C98.3252 16.064 100.053 16.8213 101.227 18.336C102.4 19.8507 102.987 21.7813 102.987 24.128V25.184H92.2345C92.5545 27.9573 94.2078 29.344 97.1945 29.344C98.0265 29.344 98.7625 29.2373 99.4025 29.024C100.064 28.7893 100.853 28.4373 101.771 27.968L102.859 30.592C101.131 31.7867 99.2212 32.384 97.1305 32.384C94.3145 32.384 92.1598 31.6587 90.6665 30.208C89.1945 28.736 88.4585 26.7413 88.4585 24.224C88.4585 22.6027 88.7572 21.184 89.3545 19.968C89.9732 18.7307 90.8478 17.7707 91.9785 17.088C93.1305 16.4053 94.4852 16.064 96.0425 16.064ZM95.9465 19.136C94.9225 19.136 94.0905 19.456 93.4505 20.096C92.8318 20.736 92.4478 21.632 92.2985 22.784H99.5305C99.3385 21.5893 98.9438 20.6827 98.3465 20.064C97.7492 19.4453 96.9492 19.136 95.9465 19.136ZM108.06 29.888C108.06 30.4853 107.857 30.9867 107.452 31.392C107.046 31.7973 106.545 32 105.948 32C105.35 32 104.838 31.7973 104.412 31.392C104.006 30.9867 103.804 30.4853 103.804 29.888C103.804 29.2907 104.006 28.7893 104.412 28.384C104.838 27.9573 105.35 27.744 105.948 27.744C106.545 27.744 107.046 27.9573 107.452 28.384C107.857 28.7893 108.06 29.2907 108.06 29.888Z" fill="#333333"></path><path d="M0 24.0222C0.0106075 24.0449 0.0179649 24.069 0.0218654 24.0936C0.0392568 24.3441 0.0844753 24.5919 0.156712 24.8327C0.342375 25.5318 0.68614 26.1809 1.16256 26.7322C1.80558 27.4805 2.69487 27.9855 3.67719 28.1604C4.15732 28.2512 4.64842 28.2729 5.13494 28.2246C5.44681 28.2014 5.7524 28.1265 6.03875 28.0033C6.2947 27.8938 6.51835 27.7229 6.68906 27.5064C6.85977 27.2898 6.97202 27.0346 7.01545 26.7643C7.06832 26.4583 7.06832 26.1457 7.01545 25.8396C6.99074 25.6657 6.95298 25.4939 6.90247 25.3255C6.90247 25.3005 6.8806 25.2755 6.86602 25.2362L6.82229 25.2969C6.70626 25.4679 6.54841 25.6079 6.3631 25.7039C6.17792 25.8013 5.97694 25.8665 5.76907 25.8967C5.43572 25.9467 5.09656 25.9467 4.76322 25.8967C4.55549 25.8646 4.3514 25.8182 4.15096 25.7682C3.80164 25.6769 3.48181 25.5 3.22164 25.254C2.95669 25.0038 2.73839 24.7102 2.57658 24.3864C2.36986 23.9858 2.24015 23.5513 2.19392 23.1046C2.14374 22.696 2.18605 22.2815 2.31783 21.8907C2.45365 21.4758 2.73683 21.1223 3.11595 20.8945C3.32899 20.77 3.56377 20.6852 3.80838 20.6446C4.30929 20.5526 4.82542 20.5795 5.31352 20.7232C5.77023 20.8577 6.1793 21.115 6.4943 21.4658C6.6904 21.6767 6.86269 21.9078 7.00816 22.1549C7.22954 22.5273 7.41734 22.918 7.56939 23.3224C7.76619 23.8366 7.95206 24.3507 8.13428 24.8684C8.51493 25.961 8.97782 27.0243 9.51914 28.0497C9.99248 28.9503 10.5552 29.8029 11.1992 30.5954C11.9276 31.4956 12.7872 32.286 13.7503 32.9412C14.8774 33.7044 16.1466 34.243 17.4858 34.5265C17.9105 34.6165 18.3399 34.6833 18.7722 34.7264C19.4987 34.7976 20.2294 34.8191 20.9589 34.7907C21.4108 34.7907 21.859 34.7335 22.3073 34.6764C23.1501 34.5709 23.9818 34.3929 24.7928 34.1444C26.4049 33.6581 27.9059 32.8713 29.2134 31.8272C30.5681 30.744 31.6766 29.3953 32.4678 27.8676C32.996 26.8486 33.3927 25.7692 33.6486 24.6542C33.7507 24.2115 33.8345 23.7687 33.8964 23.3224C33.9475 22.9654 33.9839 22.6084 34.0131 22.2513C34.0519 21.7134 34.0665 21.1742 34.0568 20.6339C34.0568 20.2019 34.0276 19.7699 33.9876 19.3414V19.1665C33.9548 19.1665 33.9548 19.1914 33.9511 19.2093C33.9256 19.4342 33.9001 19.6592 33.8709 19.8841C33.8272 20.2412 33.7653 20.5768 33.696 20.9231C33.533 21.7475 33.3164 22.5609 33.0473 23.3581C32.6492 24.5608 32.1086 25.7136 31.4365 26.7929C30.8604 27.7242 30.1579 28.5746 29.3483 29.3208C28.0693 30.498 26.5112 31.3447 24.8146 31.7844C24.2949 31.9218 23.7666 32.0256 23.233 32.095C22.4237 32.1997 21.6069 32.2367 20.7912 32.2057C20.3466 32.2057 19.8984 32.1593 19.4537 32.1093C18.5402 32.0158 17.641 31.8168 16.7751 31.5166C15.3586 31.0143 14.0941 30.1708 13.0979 29.0637C12.5787 28.48 12.1129 27.8528 11.7058 27.1892C11.3231 26.568 10.9769 25.9289 10.6453 25.2826C10.3136 24.6364 10.0184 24.0651 9.70136 23.4617C9.42409 22.9278 9.115 22.4104 8.77569 21.9121C8.46664 21.4494 8.1074 21.0209 7.70423 20.6339C7.16985 20.1191 6.52843 19.7233 5.82373 19.4735C5.40944 19.3287 4.97865 19.2339 4.54091 19.1914C3.8128 19.1062 3.07492 19.2246 2.4126 19.5329C1.75027 19.8412 1.19054 20.3269 0.798122 20.9338C0.450629 21.4489 0.211504 22.0266 0.0947521 22.6333C0.0650036 22.7587 0.0479145 22.8867 0.0437309 23.0154C0.0374103 23.0434 0.0288839 23.0708 0.018223 23.0975L0 24.0222Z" fill="#B98D58"></path><path d="M38 33.4624C37.9715 33.4364 37.9545 33.4005 37.9526 33.3624C37.8893 32.9628 37.6948 32.5943 37.3986 32.3127C37.2544 32.1656 37.0957 32.0329 36.9249 31.9164C36.5637 31.6642 36.1808 31.4431 35.7805 31.2559L35.5947 31.1737C35.5947 31.1737 35.5947 31.2023 35.5947 31.2059L35.6931 31.288C36.0123 31.5484 36.3008 31.843 36.5531 32.1663C36.6984 32.3438 36.8208 32.538 36.9176 32.7447C36.9711 32.8587 37.0103 32.9786 37.0342 33.1018C37.0779 33.3811 37.0361 33.6669 36.9139 33.923C36.8236 34.1309 36.7007 34.3236 36.5495 34.4943C36.3062 34.7755 36.0284 35.0262 35.7222 35.2405C35.2632 35.5607 34.7752 35.8392 34.2645 36.0724C33.6101 36.3791 32.9356 36.6428 32.2455 36.8615C31.3617 37.1474 30.4626 37.3858 29.5523 37.5755C29.0348 37.6827 28.5173 37.7826 27.9961 37.8647C27.5624 37.9362 27.1251 37.9933 26.6914 38.0504C26.3598 38.0968 26.0318 38.1325 25.7001 38.1682C25.4706 38.1932 25.241 38.2075 25.0114 38.2289L24.1549 38.2896L23.5682 38.3218L22.1979 38.361C21.3633 38.3789 20.5324 38.361 19.6978 38.3432C19.2824 38.3432 18.8633 38.3182 18.4442 38.2932C18.0251 38.2682 17.5076 38.2361 17.0411 38.2039C16.6766 38.1789 16.3414 38.154 15.9951 38.1182C15.6489 38.0825 15.2663 38.0468 14.9237 38.004C14.5811 37.9611 14.213 37.9219 13.8595 37.8683C13.3639 37.7933 12.8719 37.7112 12.3799 37.6291C11.7677 37.5256 11.159 37.3935 10.5577 37.2471C9.57857 37.0174 8.61857 36.7154 7.68594 36.3437C7.24442 36.1652 6.81687 35.9552 6.40676 35.7153C6.18755 35.5849 5.97807 35.4393 5.77993 35.2797C5.60679 35.1429 5.45136 34.9858 5.31709 34.812C5.196 34.6593 5.1102 34.4827 5.06563 34.2943C5.02333 34.0633 5.03833 33.8258 5.10936 33.6016C5.2011 33.3129 5.35805 33.0481 5.56855 32.8269C5.74812 32.6289 5.95122 32.4527 6.17352 32.302C6.56436 32.033 6.98194 31.8033 7.4199 31.6165C8.0298 31.3554 8.6583 31.1383 9.30041 30.9667C9.59925 30.8845 9.89444 30.8167 10.1933 30.7417C10.2301 30.733 10.2648 30.7172 10.2953 30.6953C10.1167 30.6953 9.93089 30.7132 9.75596 30.7274C9.58103 30.7417 9.43525 30.7524 9.27125 30.7632C8.87401 30.7953 8.47313 30.8381 8.07589 30.8881C7.61306 30.9452 7.15751 31.0238 6.70196 31.1202C6.09909 31.2476 5.51155 31.4367 4.94901 31.6843C4.56394 31.8476 4.2054 32.0653 3.88485 32.3306C3.34008 32.7782 2.98106 33.4055 2.87535 34.0944C2.8371 34.3221 2.81881 34.5527 2.82069 34.7835C2.81973 35.2388 2.94575 35.6857 3.18513 36.076C3.40106 36.433 3.67706 36.7517 4.00147 37.0186C4.35335 37.3106 4.7357 37.5655 5.14216 37.7791C5.73382 38.088 6.35062 38.3484 6.98622 38.5574C7.75404 38.8118 8.53651 39.0217 9.32956 39.1858C9.86164 39.3001 10.401 39.3965 10.9404 39.4822C11.3267 39.5393 11.7166 39.5928 12.1029 39.6428C12.4892 39.6928 12.9339 39.7392 13.3493 39.7821C13.7138 39.8178 14.0381 39.8428 14.3843 39.8678C14.7305 39.8928 15.0148 39.9106 15.3282 39.932C15.5287 39.932 15.7291 39.9534 15.9295 39.9606L17.0046 39.9999C17.0556 39.9964 17.1067 39.9964 17.1577 39.9999H20.3866C20.4564 39.9802 20.5292 39.973 20.6016 39.9784C21.1082 39.957 21.6148 39.9427 22.1214 39.9177C22.5295 39.8928 22.9304 39.8606 23.3349 39.8249C23.7395 39.7892 24.1112 39.7606 24.4939 39.7142C24.9858 39.6571 25.4778 39.5928 25.9516 39.525C26.5529 39.4429 27.1506 39.3393 27.7446 39.2251C28.7869 39.0251 29.8183 38.7859 30.8387 38.4896C31.8925 38.1923 32.9239 37.8237 33.9255 37.3863C34.6023 37.0943 35.2532 36.748 35.8716 36.3509C36.3166 36.0701 36.7285 35.742 37.0998 35.3726C37.2897 35.1802 37.4594 34.9697 37.6064 34.7442C37.7817 34.4802 37.8996 34.1836 37.9526 33.873C37.9527 33.854 37.9569 33.8352 37.9651 33.8179C37.9733 33.8007 37.9852 33.7854 38 33.773V33.4624Z" fill="#B98D58"></path><path d="M31.7571 15.357L31.8446 15.4355C32.0521 15.612 32.2413 15.8081 32.4095 16.0211C32.4995 16.1415 32.5787 16.2693 32.6463 16.4031C32.7025 16.5134 32.7339 16.6342 32.7383 16.7574C32.7427 16.8806 32.7201 17.0033 32.6718 17.1172C32.6106 17.2736 32.5204 17.4177 32.4058 17.5421C32.2796 17.6755 32.1391 17.7952 31.9867 17.8991C31.6689 18.1187 31.3281 18.3042 30.9699 18.4525C30.4272 18.6768 29.8681 18.8606 29.2971 19.0024C28.6967 19.1595 28.0885 19.2871 27.4749 19.3844C27.034 19.4523 26.5894 19.5201 26.1447 19.5736C25.7803 19.6201 25.4159 19.6522 25.0514 19.6843C24.687 19.7165 24.2424 19.745 23.8378 19.7736C23.6556 19.7736 23.4734 19.795 23.2875 19.8022C22.3801 19.8379 21.4654 19.8486 20.5579 19.8271C20.0987 19.8271 19.6395 19.7879 19.1767 19.7593C18.8122 19.7379 18.4478 19.7129 18.0834 19.6772C17.7189 19.6415 17.2962 19.5879 16.9026 19.5379C16.2211 19.4487 15.5432 19.3273 14.8763 19.1809C14.0586 19.0112 13.2575 18.7723 12.4819 18.4668C12.1616 18.3373 11.8511 18.1858 11.5526 18.0134C11.3472 17.8949 11.1522 17.7599 10.9695 17.6099C10.8083 17.4782 10.666 17.3257 10.5468 17.1565C10.4346 16.9972 10.3599 16.8155 10.3281 16.6245C10.2978 16.4338 10.3218 16.2386 10.3973 16.0603C10.455 15.92 10.5336 15.7889 10.6306 15.6712C10.795 15.4726 10.9877 15.2983 11.2028 15.1534C11.5558 14.9106 11.9345 14.7059 12.3325 14.5429C12.9174 14.2983 13.5205 14.0978 14.1365 13.9431L14.818 13.7788C14.8457 13.7674 14.8754 13.7616 14.9055 13.7616C14.9355 13.7616 14.9652 13.7674 14.9929 13.7788C15.5587 14.0732 16.0913 14.425 16.5819 14.8285C17.0131 15.1828 17.3824 15.6037 17.6752 16.0746C17.6752 16.1032 17.7043 16.1353 17.7371 16.1496C17.7699 16.1639 17.7554 16.0925 17.7554 16.0675C17.7405 15.8086 17.6903 15.5528 17.6059 15.307C17.4434 14.8163 17.1969 14.3564 16.8771 13.9466C16.4884 13.4457 16.0296 13.0009 15.5141 12.6256C15.3464 12.5006 15.1715 12.3792 14.9929 12.2685C14.0172 11.6282 13.0958 10.9118 12.2378 10.1263C11.727 9.66288 11.2576 9.15761 10.8347 8.61598C10.5761 8.28321 10.355 7.92409 10.175 7.54485C10.0553 7.29414 9.97071 7.02871 9.92357 6.75579C9.84341 6.33543 9.93081 5.90097 10.1678 5.54184C10.1803 5.52496 10.1912 5.50704 10.2005 5.48828C10.2005 5.48828 10.175 5.48828 10.1714 5.48828C9.60934 5.91867 9.1783 6.49161 8.92501 7.14496C8.76284 7.56602 8.7078 8.01945 8.76466 8.46602C8.81792 8.85668 8.94131 9.23502 9.1291 9.58357C9.33553 9.96999 9.59016 10.3298 9.88713 10.6547C10.3216 11.1272 10.8179 11.5414 11.3631 11.8865C11.8641 12.2062 12.385 12.4948 12.9229 12.7505L14.5519 13.5432C14.6291 13.5768 14.7034 13.6162 14.7743 13.661C14.7743 13.6967 14.7305 13.6896 14.7087 13.6967H14.6467C13.694 13.8095 12.7477 13.9692 11.8114 14.1751C11.0516 14.3353 10.3058 14.5537 9.581 14.8285C9.21037 14.9673 8.85201 15.1357 8.50955 15.332C8.27255 15.4674 8.05136 15.6279 7.84992 15.8104C7.70836 15.9396 7.58572 16.0874 7.48548 16.2496C7.35394 16.4445 7.27755 16.6702 7.26411 16.9035C7.25066 17.1369 7.30064 17.3695 7.40895 17.5778C7.50315 17.7695 7.62597 17.9464 7.77338 18.1026C7.9743 18.315 8.19927 18.5043 8.44395 18.6668C8.87108 18.9474 9.32513 19.1866 9.79966 19.3808C10.4838 19.6702 11.1892 19.9089 11.9098 20.0949C12.6386 20.2949 13.3675 20.452 14.1183 20.5805C14.6248 20.6698 15.1314 20.7483 15.638 20.8054C16.0279 20.8519 16.4179 20.8911 16.8078 20.9304C17.2852 20.9804 17.7627 21.0054 18.2401 21.034C19.3917 21.0982 20.5433 21.0982 21.6986 21.0697C22.2307 21.0697 22.7628 21.0304 23.2948 20.9947C23.754 20.9661 24.2059 20.9268 24.6615 20.8804C25.117 20.834 25.4669 20.7983 25.8714 20.7448C26.2759 20.6912 26.706 20.6234 27.1214 20.5555C27.679 20.4663 28.2148 20.352 28.776 20.2235C29.5988 20.0352 30.4055 19.7846 31.1886 19.4737C31.657 19.2903 32.1052 19.0606 32.5261 18.7881C32.7402 18.6489 32.9392 18.4886 33.1201 18.3097C33.2521 18.1784 33.366 18.0307 33.459 17.8705C33.5887 17.6473 33.6471 17.3911 33.6267 17.135C33.6095 16.9691 33.56 16.8079 33.4809 16.6602C33.3843 16.4817 33.2615 16.3181 33.1165 16.1746C32.9569 16.0174 32.7838 15.874 32.599 15.7461C32.3664 15.5849 32.1229 15.4393 31.8701 15.3105L31.8045 15.282L31.7571 15.357Z" fill="#B98D58"></path><path d="M22.4203 16.8279C22.4203 16.7529 22.4459 16.6779 22.4495 16.6029C22.4678 16.311 22.4568 16.018 22.4167 15.7282C22.2767 14.7141 21.919 13.7406 21.3671 12.8718C20.9383 12.1759 20.4283 11.5313 19.8474 10.9509C19.6287 10.7296 19.3991 10.5153 19.1695 10.3047C18.324 9.52632 17.5077 8.72654 16.7351 7.88035C16.0658 7.15815 15.4473 6.39232 14.8837 5.58813C14.5117 5.06161 14.1862 4.50499 13.9107 3.92431C13.7207 3.523 13.5753 3.10284 13.477 2.67108C13.4043 2.35982 13.3749 2.04034 13.3895 1.72135C13.4071 1.14847 13.6201 0.59787 13.9945 0.157497L14.0601 0.0789471L14.1184 0.011108C14.0966 -0.013885 14.082 0.011108 14.0674 0.011108C13.8768 0.145712 13.6954 0.292415 13.5244 0.450273C12.8974 1.01195 12.4004 1.69856 12.0666 2.464C11.8749 2.92015 11.7521 3.40128 11.7022 3.89217C11.6265 4.61115 11.6883 5.33764 11.8844 6.03443C12.1523 7.05918 12.6406 8.01601 13.3167 8.84079C13.7121 9.31861 14.1566 9.75532 14.6432 10.144C15.1289 10.5319 15.6389 10.8897 16.1702 11.2151C16.7132 11.5722 17.2635 11.8899 17.8065 12.222C18.3496 12.554 18.9254 12.9147 19.4611 13.2931C19.9376 13.6316 20.386 14.0065 20.8022 14.4142C21.476 15.0726 22.0077 15.857 22.3657 16.7207C22.3839 16.7779 22.3875 16.8136 22.4203 16.8279Z" fill="#B98D58"></path><path d="M25.332 13.95C25.332 13.85 25.332 13.7501 25.332 13.6501C25.2988 13.056 25.176 12.4701 24.9676 11.9113C24.6742 11.1269 24.2287 10.4055 23.6556 9.78689C23.448 9.55965 23.2252 9.34614 22.9887 9.14778C22.2783 8.54467 21.6111 7.89451 20.9916 7.20189C20.6175 6.78305 20.2752 6.33794 19.9675 5.87012C19.7234 5.49717 19.5206 5.0998 19.3625 4.68474C19.2626 4.42144 19.1977 4.14664 19.1694 3.86711C19.1427 3.61864 19.167 3.36746 19.2409 3.12833C19.3147 2.8892 19.4366 2.66695 19.5994 2.47464L19.6869 2.37109C19.6577 2.37109 19.6432 2.37109 19.6249 2.37109C19.0629 2.6848 18.5797 3.11791 18.2109 3.6386C17.9778 3.97005 17.8188 4.34601 17.7444 4.74186C17.6941 5.01041 17.6855 5.28486 17.7189 5.55592C17.781 6.03465 17.9382 6.49681 18.1818 6.91626C18.4782 7.43884 18.846 7.91933 19.2751 8.34443C19.7031 8.77811 20.1676 9.17582 20.6636 9.53339C21.1519 9.89043 21.6512 10.2475 22.1469 10.5867C22.6425 10.9259 23.0907 11.2615 23.5317 11.6578C23.9561 12.0151 24.3386 12.4175 24.6724 12.8575C24.9085 13.1758 25.1089 13.5182 25.2701 13.8786C25.2812 13.9093 25.2946 13.9391 25.3102 13.9679L25.332 13.95Z" fill="#B98D58"></path></svg>